<?xml version="1.0" standalone="no"?>
<!DOCTYPE svg PUBLIC "-//W3C//DTD SVG 20010904//EN"
 "http://www.w3.org/TR/2001/REC-SVG-20010904/DTD/svg10.dtd">
<svg version="1.0" xmlns="http://www.w3.org/2000/svg"
 width="192.000000pt" height="192.000000pt" viewBox="0 0 192.000000 192.000000"
 preserveAspectRatio="xMidYMid meet">
<metadata>
Created by potrace 1.14, written by Peter Selinger 2001-2017
</metadata>
<g transform="translate(0.000000,192.000000) scale(0.100000,-0.100000)"
fill="#000000" stroke="none">
<path d="M885 1884 c-118 -26 -184 -56 -255 -112 -73 -59 -107 -102 -149 -187
-53 -108 -58 -139 -60 -377 l-1 -148 -29 0 -30 0 -1 -467 c0 -258 -1 -481 -1
-498 -2 -45 0 -51 11 -35 8 13 11 13 19 1 5 -7 14 -10 20 -6 18 10 61 14 55 4
-3 -5 -1 -9 5 -9 5 0 13 5 16 10 7 12 25 4 25 -11 0 -6 -5 -7 -12 -3 -7 4 -8
3 -4 -5 9 -14 26 -5 26 15 0 14 2 13 16 0 17 -17 28 -21 20 -7 -3 5 3 11 14
14 11 3 20 1 20 -5 0 -5 4 -7 9 -3 6 3 15 -3 21 -12 10 -16 11 -16 7 4 -4 20
-3 21 15 12 15 -8 22 -8 28 1 5 9 9 9 14 1 4 -6 3 -11 -2 -11 -5 0 -9 -7 -9
-16 0 -13 3 -13 16 4 18 21 57 39 45 20 -5 -7 0 -9 14 -6 12 4 25 1 29 -4 3
-6 1 -8 -5 -4 -6 3 -13 2 -16 -3 -4 -5 -2 -12 3 -15 5 -4 12 -2 16 4 4 6 16 4
33 -6 19 -11 22 -12 10 -2 -10 8 -14 19 -10 23 4 5 1 5 -5 1 -7 -4 -13 -3 -13
2 0 5 13 9 29 8 20 -1 26 -5 20 -12 -5 -7 -3 -11 6 -11 14 0 19 11 16 31 -1 5
5 4 13 -4 18 -14 22 -25 6 -15 -5 3 -10 2 -10 -4 0 -5 12 -9 28 -7 15 1 35 -2
46 -7 12 -6 16 -6 12 1 -3 6 0 13 6 15 7 3 -3 4 -23 3 -27 -2 -36 1 -32 11 3
8 11 10 21 5 21 -10 263 -9 279 1 6 4 15 3 18 -3 5 -8 11 -8 19 -1 7 6 16 8
20 4 11 -11 70 -9 79 2 5 6 7 3 3 -7 -3 -10 -1 -20 5 -23 5 -4 8 -1 7 7 -2 8
8 14 26 16 21 3 26 0 21 -10 -3 -7 1 -4 9 6 15 19 22 12 17 -17 -1 -5 3 -6 9
-2 6 3 8 11 5 16 -3 5 8 7 24 5 17 -2 28 1 25 5 -3 5 0 9 5 9 6 0 11 -5 11
-10 0 -7 7 -7 21 1 17 9 20 8 13 -3 -6 -11 -5 -11 8 0 9 7 18 9 20 5 3 -4 3
-2 1 5 -1 8 -3 234 -3 503 l0 489 -30 0 -30 0 -1 163 c0 89 -2 171 -4 182 -2
11 -6 38 -10 60 -3 22 -23 76 -45 121 -88 183 -273 299 -480 302 -36 0 -74 -2
-85 -4z m178 -159 c91 -24 183 -89 232 -166 49 -76 58 -122 61 -316 l3 -183
-393 0 -394 0 0 148 c-1 81 4 174 9 206 39 224 263 368 482 311z"/>
<path d="M1200 50 c-15 -10 -12 -11 28 -13 9 -1 20 -6 24 -12 5 -6 8 -5 8 3 0
8 5 10 13 6 8 -5 7 -2 -2 9 -9 12 -17 14 -26 7 -7 -6 -15 -6 -21 0 -6 6 -15 6
-24 0z"/>
<path d="M570 42 c0 -4 10 -9 22 -9 18 -2 20 0 8 7 -18 12 -30 13 -30 2z"/>
<path d="M710 46 c0 -2 7 -7 16 -10 8 -3 12 -2 9 4 -6 10 -25 14 -25 6z"/>
<path d="M976 35 c-3 -8 -1 -15 4 -15 6 0 10 7 10 15 0 8 -2 15 -4 15 -2 0 -6
-7 -10 -15z"/>
<path d="M1001 44 c-1 -19 26 -38 31 -22 4 10 9 10 23 -2 17 -14 17 -14 5 6
-7 11 -19 21 -26 21 -7 0 -11 -4 -8 -9 3 -4 1 -8 -5 -8 -5 0 -12 6 -14 13 -4
7 -6 8 -6 1z"/>
<path d="M1070 39 c0 -5 5 -7 10 -4 6 3 10 8 10 11 0 2 -4 4 -10 4 -5 0 -10
-5 -10 -11z"/>
<path d="M1131 38 c-2 -25 14 -30 33 -9 13 15 14 18 1 18 -8 0 -12 -4 -9 -8 2
-4 0 -10 -5 -13 -5 -4 -12 2 -14 11 -4 16 -5 16 -6 1z"/>
<path d="M1313 35 c0 -8 4 -12 9 -9 5 3 6 10 3 15 -9 13 -12 11 -12 -6z"/>
<path d="M1370 39 c0 -5 5 -7 10 -4 6 3 10 8 10 11 0 2 -4 4 -10 4 -5 0 -10
-5 -10 -11z"/>
<path d="M1180 26 c0 -2 7 -7 16 -10 8 -3 12 -2 9 4 -6 10 -25 14 -25 6z"/>
</g>
</svg>
